<svg width="240" height="195" xmlns="http://www.w3.org/2000/svg">
  <defs>
    <linearGradient id="bg" x1="0%" y1="0%" x2="100%" y2="100%">
      <stop offset="0%" style="stop-color:#1a1a2e"/>
      <stop offset="50%" style="stop-color:#16213e"/>
      <stop offset="100%" style="stop-color:#0f3460"/>
    </linearGradient>
    <style>
      .lang-name { fill: #e0e0e0; font-size: 12px; font-family: 'Segoe UI', Ubuntu, sans-serif; }
      .lang-percent { fill: #a8dadc; font-size: 11px; font-family: 'Segoe UI', Ubuntu, sans-serif; }
    </style>
  </defs>
  
  <rect width="240" height="195" fill="url(#bg)" stroke="#3d5a80" stroke-width="1" rx="8"/>
  
  <text x="120" y="30" style="fill: #70e1f5; font-size: 16px; font-weight: 600; font-family: 'Segoe UI', Ubuntu, sans-serif;" text-anchor="middle">🏆 Top Languages</text>
  <line x1="20" y1="40" x2="220" y2="40" stroke="#3d5a80" stroke-width="0.5"/>

  <g transform="translate(20, 60)">
    <circle cx="5" cy="-3" r="5" fill="#e34c26"/>
    <text x="15" y="0" class="lang-name">HTML</text>
    <text x="200" y="0" class="lang-percent" text-anchor="end">36.2%</text>
  </g>
  <g transform="translate(20, 82)">
    <circle cx="5" cy="-3" r="5" fill="#b07219"/>
    <text x="15" y="0" class="lang-name">Java</text>
    <text x="200" y="0" class="lang-percent" text-anchor="end">18.3%</text>
  </g>
  <g transform="translate(20, 104)">
    <circle cx="5" cy="-3" r="5" fill="#f1e05a"/>
    <text x="15" y="0" class="lang-name">JavaScript</text>
    <text x="200" y="0" class="lang-percent" text-anchor="end">14.0%</text>
  </g>
  <g transform="translate(20, 126)">
    <circle cx="5" cy="-3" r="5" fill="#A97BFF"/>
    <text x="15" y="0" class="lang-name">Kotlin</text>
    <text x="200" y="0" class="lang-percent" text-anchor="end">12.1%</text>
  </g>
  <g transform="translate(20, 148)">
    <circle cx="5" cy="-3" r="5" fill="#41b883"/>
    <text x="15" y="0" class="lang-name">Vue</text>
    <text x="200" y="0" class="lang-percent" text-anchor="end">11.0%</text>
  </g>
  <g transform="translate(20, 170)">
    <circle cx="5" cy="-3" r="5" fill="#563d7c"/>
    <text x="15" y="0" class="lang-name">CSS</text>
    <text x="200" y="0" class="lang-percent" text-anchor="end">8.5%</text>
  </g>
  <text x="220" y="185" style="fill: #5c8a97; font-size: 10px; font-family: 'Segoe UI', Ubuntu, sans-serif;" text-anchor="end">Updated 2026-02-27</text>
</svg>