<svg width="240" height="195" viewBox="0 0 240 195" xmlns="http://www.w3.org/2000/svg" role="img" aria-label="Top languages">
  <defs>
    <style>
      .title { fill: #102033; font-size: 16px; font-weight: 700; font-family: 'Segoe UI', Ubuntu, Arial, sans-serif; }
      .name { fill: #36536f; font-size: 12px; font-family: 'Segoe UI', Ubuntu, Arial, sans-serif; }
      .percent { fill: #5f7185; font-size: 11px; font-family: 'Segoe UI', Ubuntu, Arial, sans-serif; }
      .foot { fill: #7b8da0; font-size: 10px; font-family: 'Segoe UI', Ubuntu, Arial, sans-serif; }
    </style>
  </defs>

  <rect x="1" y="1" width="238" height="193" rx="10" fill="#ffffff" stroke="#dbe8f6" stroke-width="2"/>
  <rect x="15" y="16" width="210" height="30" rx="8" fill="#f3f8ff"/>
  <text x="120" y="36" class="title" text-anchor="middle">Top Languages</text>
  
  <g transform="translate(20, 60)">
    <circle cx="5" cy="-4" r="5" fill="#e34c26"/>
    <text x="17" y="0" class="name">HTML</text>
    <text x="200" y="0" class="percent" text-anchor="end">34.4%</text>
  </g>
  <g transform="translate(20, 80)">
    <circle cx="5" cy="-4" r="5" fill="#b07219"/>
    <text x="17" y="0" class="name">Java</text>
    <text x="200" y="0" class="percent" text-anchor="end">17.9%</text>
  </g>
  <g transform="translate(20, 100)">
    <circle cx="5" cy="-4" r="5" fill="#f1e05a"/>
    <text x="17" y="0" class="name">JavaScript</text>
    <text x="200" y="0" class="percent" text-anchor="end">14.8%</text>
  </g>
  <g transform="translate(20, 120)">
    <circle cx="5" cy="-4" r="5" fill="#41b883"/>
    <text x="17" y="0" class="name">Vue</text>
    <text x="200" y="0" class="percent" text-anchor="end">13.2%</text>
  </g>
  <g transform="translate(20, 140)">
    <circle cx="5" cy="-4" r="5" fill="#A97BFF"/>
    <text x="17" y="0" class="name">Kotlin</text>
    <text x="200" y="0" class="percent" text-anchor="end">11.5%</text>
  </g>
  <g transform="translate(20, 160)">
    <circle cx="5" cy="-4" r="5" fill="#563d7c"/>
    <text x="17" y="0" class="name">CSS</text>
    <text x="200" y="0" class="percent" text-anchor="end">8.2%</text>
  </g>
  <text x="220" y="178" class="foot" text-anchor="end">Updated 2026-04-26</text>
</svg>