<svg width="240" height="195" xmlns="http://www.w3.org/2000/svg">
  <defs>
    <style>
      .lang-name { fill: #ffffff; font-size: 12px; }
      .lang-percent { fill: #ffffff; font-size: 11px; }
    </style>
  </defs>
  
  <rect width="240" height="195" fill="#0d1117" stroke="#30363d" stroke-width="1" rx="4.5"/>
  
  <text x="120" y="30" style="fill: #ffffff; font-size: 16px; font-weight: 600;" text-anchor="middle">Top Languages</text>

  <g transform="translate(20, 60)">
    <circle cx="5" cy="-3" r="5" fill="#e34c26"/>
    <text x="15" y="0" class="lang-name">HTML</text>
    <text x="200" y="0" class="lang-percent" text-anchor="end">36.7%</text>
  </g>
  <g transform="translate(20, 80)">
    <circle cx="5" cy="-3" r="5" fill="#b07219"/>
    <text x="15" y="0" class="lang-name">Java</text>
    <text x="200" y="0" class="lang-percent" text-anchor="end">18.6%</text>
  </g>
  <g transform="translate(20, 100)">
    <circle cx="5" cy="-3" r="5" fill="#f1e05a"/>
    <text x="15" y="0" class="lang-name">JavaScript</text>
    <text x="200" y="0" class="lang-percent" text-anchor="end">13.4%</text>
  </g>
  <g transform="translate(20, 120)">
    <circle cx="5" cy="-3" r="5" fill="#858585"/>
    <text x="15" y="0" class="lang-name">Kotlin</text>
    <text x="200" y="0" class="lang-percent" text-anchor="end">12.3%</text>
  </g>
  <g transform="translate(20, 140)">
    <circle cx="5" cy="-3" r="5" fill="#41b883"/>
    <text x="15" y="0" class="lang-name">Vue</text>
    <text x="200" y="0" class="lang-percent" text-anchor="end">10.5%</text>
  </g>
  <g transform="translate(20, 160)">
    <circle cx="5" cy="-3" r="5" fill="#563d7c"/>
    <text x="15" y="0" class="lang-name">CSS</text>
    <text x="200" y="0" class="lang-percent" text-anchor="end">8.6%</text>
  </g>
  <text x="220" y="185" style="fill: #ffffff; font-size: 10px;" text-anchor="end">Updated 2026-02-14</text>
</svg>